<svg width="24" height="24" viewBox="0 0 24 24" fill="none" xmlns="http://www.w3.org/2000/svg">
<path d="M8.05201 5.837C9.29477 5.28429 10.6399 4.99912 12 5C14.955 5 17.309 6.315 19.06 7.864C20.816 9.417 21.926 11.171 22.367 11.944C22.3776 11.9604 22.3832 11.9795 22.383 11.999C22.3839 12.0203 22.3779 12.0413 22.366 12.059C21.9155 12.8377 21.4039 13.5793 20.836 14.277C20.77 14.3529 20.7198 14.4413 20.6886 14.5369C20.6575 14.6326 20.6458 14.7335 20.6544 14.8337C20.6631 14.934 20.6918 15.0314 20.7388 15.1203C20.7859 15.2093 20.8504 15.2878 20.9284 15.3513C21.0065 15.4148 21.0965 15.4619 21.1931 15.4899C21.2898 15.5178 21.391 15.5261 21.4909 15.5141C21.5908 15.5022 21.6873 15.4702 21.7745 15.4202C21.8618 15.3702 21.9382 15.3031 21.999 15.223C22.6207 14.4632 23.1793 13.6539 23.669 12.803C23.809 12.5593 23.8827 12.2832 23.8829 12.0021C23.8831 11.7211 23.8097 11.4449 23.67 11.201C23.185 10.351 21.98 8.444 20.054 6.741C18.124 5.034 15.432 3.5 12 3.5C10.305 3.5 8.78501 3.874 7.44801 4.463C7.26692 4.54373 7.12517 4.69289 7.05375 4.87785C6.98233 5.06281 6.98706 5.26853 7.0669 5.45001C7.14673 5.6315 7.29519 5.77398 7.47979 5.84632C7.6644 5.91865 7.87013 5.91594 8.05201 5.837ZM19.166 17.987C17.328 19.38 14.933 20.5 12 20.5C8.56801 20.5 5.87501 18.966 3.94601 17.26C2.02001 15.556 0.81401 13.648 0.33001 12.798C0.189732 12.5547 0.115975 12.2787 0.11615 11.9979C0.116326 11.717 0.190428 11.4411 0.33101 11.198C1.22585 9.64725 2.34343 8.23622 3.64801 7.01L1.31701 5.362C1.23349 5.30645 1.16196 5.2347 1.10665 5.15102C1.05135 5.06733 1.01339 4.9734 0.995036 4.87478C0.976678 4.77617 0.978288 4.67487 0.999772 4.57689C1.02126 4.4789 1.06218 4.38623 1.12011 4.30434C1.17805 4.22245 1.25183 4.15302 1.33707 4.10015C1.42232 4.04728 1.5173 4.01205 1.61641 3.99654C1.71551 3.98103 1.81672 3.98556 1.91404 4.00985C2.01137 4.03415 2.10283 4.07773 2.18301 4.138L22.683 18.638C22.7665 18.6936 22.8381 18.7653 22.8934 18.849C22.9487 18.9327 22.9866 19.0266 23.005 19.1252C23.0233 19.2238 23.0217 19.3251 23.0002 19.4231C22.9788 19.5211 22.9378 19.6138 22.8799 19.6957C22.822 19.7775 22.7482 19.847 22.6629 19.8999C22.5777 19.9527 22.4827 19.988 22.3836 20.0035C22.2845 20.019 22.1833 20.0144 22.086 19.9901C21.9887 19.9658 21.8972 19.9223 21.817 19.862L19.166 17.987ZM4.90201 7.898C3.17201 9.439 2.07401 11.171 1.63401 11.942C1.6223 11.9594 1.61635 11.98 1.61701 12.001C1.61568 12.0163 1.62101 12.0347 1.63301 12.056C2.07401 12.83 3.18401 14.583 4.94001 16.136C6.69001 17.685 9.04501 19 12 19C14.334 19 16.29 18.18 17.874 17.073L14.358 14.586C13.7684 15.1243 13.0124 15.4448 12.2156 15.4944C11.4187 15.544 10.6289 15.3197 9.97707 14.8586C9.32526 14.3976 8.85066 13.7275 8.63202 12.9597C8.41337 12.1918 8.46383 11.3722 8.77501 10.637L4.90201 7.899V7.898Z" fill="black"/>
</svg>
