<svg width="67" height="22" viewBox="0 0 67 22" fill="none" xmlns="http://www.w3.org/2000/svg">
<g clip-path="url(#clip0_66_11)">
<path d="M64.9131 13.4452L66.7718 14.6852C66.1685 15.5744 64.7257 17.0999 62.2311 17.0999C59.1334 17.0999 56.8265 14.7016 56.8265 11.6505C56.8265 8.40379 59.1579 6.20117 61.9703 6.20117C64.799 6.20117 66.1848 8.45264 66.6332 9.66814L66.8778 10.2882L59.59 13.3065C60.1443 14.3997 61.0085 14.9544 62.2311 14.9544C63.454 14.9544 64.3017 14.3507 64.9131 13.4452ZM59.1987 11.4793L64.0654 9.45612C63.7963 8.7791 62.9975 8.29785 62.0436 8.29785C60.8291 8.29785 59.1416 9.37467 59.1987 11.4793Z" fill="#FF302F"/>
<path d="M53.313 0.645752H55.6607V16.6023H53.313V0.645752Z" fill="#20B15A"/>
<path d="M49.612 6.62539H51.8783V16.3168C51.8783 20.3385 49.506 21.9945 46.7017 21.9945C44.0606 21.9945 42.471 20.2162 41.8759 18.7723L43.9546 17.9075C44.3295 18.7966 45.2344 19.8491 46.7017 19.8491C48.5033 19.8491 49.612 18.7314 49.612 16.6431V15.86H49.5305C48.9924 16.5126 47.9653 17.0999 46.661 17.0999C43.9382 17.0999 41.4437 14.726 41.4437 11.6669C41.4437 8.59138 43.9382 6.19312 46.661 6.19312C47.9572 6.19312 48.9924 6.77232 49.5305 7.40862H49.612V6.62539ZM49.775 11.6669C49.775 9.74166 48.4952 8.33851 46.8648 8.33851C45.218 8.33851 43.8322 9.74166 43.8322 11.6669C43.8322 13.5676 45.218 14.9462 46.8648 14.9462C48.4953 14.9545 49.7751 13.5676 49.7751 11.6669" fill="#3686F7"/>
<path d="M28.5556 11.6259C28.5556 14.7667 26.1101 17.0752 23.1102 17.0752C20.1104 17.0752 17.6647 14.7585 17.6647 11.6259C17.6647 8.4689 20.1104 6.16846 23.1102 6.16846C26.1101 6.16846 28.5556 8.4689 28.5556 11.6259ZM26.1753 11.6259C26.1753 9.66816 24.7568 8.32197 23.1102 8.32197C21.4636 8.32197 20.0451 9.66816 20.0451 11.6259C20.0451 13.5674 21.4636 14.9298 23.1102 14.9298C24.7569 14.9298 26.1753 13.5674 26.1753 11.6259Z" fill="#FF302F"/>
<path d="M40.4493 11.6505C40.4493 14.7913 38.0037 17.0998 35.0039 17.0998C32.0039 17.0998 29.5584 14.7911 29.5584 11.6505C29.5584 8.49349 32.0039 6.20117 35.0039 6.20117C38.0037 6.20117 40.4493 8.48537 40.4493 11.6505ZM38.0607 11.6505C38.0607 9.69276 36.6424 8.34656 34.9956 8.34656C33.3489 8.34656 31.9305 9.69276 31.9305 11.6505C31.9305 13.592 33.349 14.9544 34.9956 14.9544C36.6505 14.9544 38.0607 13.5839 38.0607 11.6505Z" fill="#FFBA40"/>
<path d="M8.71392 14.7095C5.29823 14.7095 2.62451 11.9522 2.62451 8.53407C2.62451 5.11608 5.29823 2.35875 8.71392 2.35875C10.5563 2.35875 11.9013 3.08475 12.8958 4.01478L14.5344 2.37512C13.1486 1.04543 11.2981 0.0336914 8.71392 0.0336914C4.03478 0.0338224 0.0973511 3.85174 0.0973511 8.53407C0.0973511 13.2164 4.03478 17.0345 8.71392 17.0345C11.2411 17.0345 13.1486 16.2024 14.6404 14.6524C16.1729 13.1187 16.6457 10.9651 16.6457 9.21935C16.6457 8.67275 16.5805 8.10992 16.5071 7.69388H8.71392V9.96171H14.2654C14.1023 11.3812 13.654 12.352 12.9937 13.0126C12.1948 13.8204 10.9313 14.7095 8.71392 14.7095Z" fill="#3686F7"/>
</g>
<defs>
<clipPath id="clip0_66_11">
<rect width="67" height="22" fill="white"/>
</clipPath>
</defs>
</svg>
