<svg width="114" height="67" viewBox="0 0 114 67" fill="none" xmlns="http://www.w3.org/2000/svg">
<path d="M9.15888 43.288C8.02288 43.288 6.96688 43.08 5.99088 42.664C5.03088 42.248 4.19888 41.672 3.49488 40.936C2.80688 40.184 2.30288 39.312 1.98288 38.32L4.69488 37.144C5.12688 38.168 5.75088 38.976 6.56688 39.568C7.38288 40.144 8.30288 40.432 9.32688 40.432C9.90288 40.432 10.3989 40.344 10.8149 40.168C11.2469 39.976 11.5749 39.72 11.7989 39.4C12.0389 39.08 12.1589 38.696 12.1589 38.248C12.1589 37.72 11.9989 37.288 11.6789 36.952C11.3749 36.6 10.9109 36.328 10.2869 36.136L6.85488 35.032C5.46288 34.6 4.41488 33.952 3.71088 33.088C3.00688 32.224 2.65488 31.208 2.65488 30.04C2.65488 29.016 2.90288 28.112 3.39888 27.328C3.91088 26.544 4.61488 25.936 5.51088 25.504C6.42288 25.056 7.46288 24.832 8.63088 24.832C9.70288 24.832 10.6869 25.024 11.5829 25.408C12.4789 25.776 13.2469 26.296 13.8869 26.968C14.5429 27.624 15.0309 28.4 15.3509 29.296L12.6629 30.496C12.3109 29.6 11.7829 28.912 11.0789 28.432C10.3749 27.936 9.55888 27.688 8.63088 27.688C8.08688 27.688 7.60688 27.784 7.19088 27.976C6.77488 28.152 6.44688 28.408 6.20688 28.744C5.98288 29.064 5.87088 29.448 5.87088 29.896C5.87088 30.392 6.03088 30.832 6.35088 31.216C6.67088 31.584 7.15888 31.872 7.81488 32.08L11.1029 33.112C12.5269 33.576 13.5909 34.216 14.2949 35.032C15.0149 35.848 15.3749 36.856 15.3749 38.056C15.3749 39.08 15.1109 39.984 14.5829 40.768C14.0549 41.552 13.3269 42.168 12.3989 42.616C11.4709 43.064 10.3909 43.288 9.15888 43.288ZM18.0499 43V24.832H21.1939V43H18.0499ZM30.4808 43.288C29.2008 43.288 28.0328 42.992 26.9768 42.4C25.9368 41.808 25.1048 41 24.4808 39.976C23.8728 38.952 23.5688 37.784 23.5688 36.472C23.5688 35.16 23.8728 33.992 24.4808 32.968C25.1048 31.944 25.9368 31.136 26.9768 30.544C28.0168 29.952 29.1848 29.656 30.4808 29.656C31.7608 29.656 32.9208 29.952 33.9608 30.544C35.0008 31.136 35.8248 31.944 36.4328 32.968C37.0568 33.976 37.3688 35.144 37.3688 36.472C37.3688 37.784 37.0568 38.952 36.4328 39.976C35.8088 41 34.9768 41.808 33.9368 42.4C32.8968 42.992 31.7448 43.288 30.4808 43.288ZM30.4808 40.408C31.1848 40.408 31.8008 40.24 32.3288 39.904C32.8728 39.568 33.2968 39.104 33.6008 38.512C33.9208 37.904 34.0808 37.224 34.0808 36.472C34.0808 35.704 33.9208 35.032 33.6008 34.456C33.2968 33.864 32.8728 33.4 32.3288 33.064C31.8008 32.712 31.1848 32.536 30.4808 32.536C29.7608 32.536 29.1288 32.712 28.5848 33.064C28.0408 33.4 27.6088 33.864 27.2888 34.456C26.9848 35.032 26.8328 35.704 26.8328 36.472C26.8328 37.224 26.9848 37.904 27.2888 38.512C27.6088 39.104 28.0408 39.568 28.5848 39.904C29.1288 40.24 29.7608 40.408 30.4808 40.408ZM46.0891 48.28C45.1131 48.28 44.2091 48.12 43.3771 47.8C42.5451 47.48 41.8251 47.032 41.2171 46.456C40.6251 45.896 40.1931 45.232 39.9211 44.464L42.8491 43.36C43.0411 43.968 43.4171 44.456 43.9771 44.824C44.5531 45.208 45.2571 45.4 46.0891 45.4C46.7291 45.4 47.2891 45.28 47.7691 45.04C48.2651 44.8 48.6491 44.448 48.9211 43.984C49.1931 43.536 49.3291 42.992 49.3291 42.352V39.376L49.9291 40.096C49.4811 40.88 48.8811 41.472 48.1291 41.872C47.3771 42.272 46.5211 42.472 45.5611 42.472C44.3451 42.472 43.2571 42.192 42.2971 41.632C41.3371 41.072 40.5851 40.304 40.0411 39.328C39.4971 38.352 39.2251 37.256 39.2251 36.04C39.2251 34.808 39.4971 33.712 40.0411 32.752C40.5851 31.792 41.3291 31.04 42.2731 30.496C43.2171 29.936 44.2891 29.656 45.4891 29.656C46.4651 29.656 47.3211 29.864 48.0571 30.28C48.8091 30.68 49.4331 31.264 49.9291 32.032L49.4971 32.824V29.944H52.4731V42.352C52.4731 43.488 52.1931 44.504 51.6331 45.4C51.0891 46.296 50.3371 47 49.3771 47.512C48.4331 48.024 47.3371 48.28 46.0891 48.28ZM45.9451 39.568C46.6171 39.568 47.2011 39.424 47.6971 39.136C48.2091 38.832 48.6091 38.416 48.8971 37.888C49.1851 37.36 49.3291 36.752 49.3291 36.064C49.3291 35.392 49.1771 34.792 48.8731 34.264C48.5851 33.72 48.1851 33.296 47.6731 32.992C47.1771 32.688 46.6011 32.536 45.9451 32.536C45.2891 32.536 44.6971 32.688 44.1691 32.992C43.6411 33.296 43.2251 33.72 42.9211 34.264C42.6331 34.792 42.4891 35.392 42.4891 36.064C42.4891 36.736 42.6331 37.336 42.9211 37.864C43.2251 38.392 43.6331 38.808 44.1451 39.112C44.6731 39.416 45.2731 39.568 45.9451 39.568ZM59.3693 43.288C58.4573 43.288 57.6653 43.136 56.9933 42.832C56.3213 42.528 55.8013 42.096 55.4333 41.536C55.0653 40.96 54.8813 40.296 54.8813 39.544C54.8813 38.824 55.0413 38.184 55.3613 37.624C55.6813 37.048 56.1773 36.568 56.8493 36.184C57.5213 35.8 58.3693 35.528 59.3933 35.368L63.6653 34.672V37.072L59.9933 37.696C59.3693 37.808 58.9053 38.008 58.6013 38.296C58.2973 38.584 58.1453 38.96 58.1453 39.424C58.1453 39.872 58.3133 40.232 58.6493 40.504C59.0013 40.76 59.4333 40.888 59.9453 40.888C60.6013 40.888 61.1773 40.752 61.6733 40.48C62.1853 40.192 62.5773 39.8 62.8493 39.304C63.1373 38.808 63.2813 38.264 63.2813 37.672V34.312C63.2813 33.752 63.0573 33.288 62.6093 32.92C62.1773 32.536 61.6013 32.344 60.8813 32.344C60.2093 32.344 59.6093 32.528 59.0813 32.896C58.5693 33.248 58.1933 33.72 57.9533 34.312L55.3853 33.064C55.6413 32.376 56.0413 31.784 56.5853 31.288C57.1453 30.776 57.8013 30.376 58.5533 30.088C59.3053 29.8 60.1213 29.656 61.0013 29.656C62.0733 29.656 63.0173 29.856 63.8333 30.256C64.6493 30.64 65.2813 31.184 65.7293 31.888C66.1933 32.576 66.4253 33.384 66.4253 34.312V43H63.4493V40.768L64.1213 40.72C63.7853 41.28 63.3853 41.752 62.9213 42.136C62.4573 42.504 61.9293 42.792 61.3373 43C60.7453 43.192 60.0893 43.288 59.3693 43.288ZM69.3312 43V29.944H72.2832V32.512L72.0432 32.056C72.3472 31.272 72.8432 30.68 73.5312 30.28C74.2352 29.864 75.0512 29.656 75.9792 29.656C76.9392 29.656 77.7872 29.864 78.5232 30.28C79.2752 30.696 79.8592 31.28 80.2752 32.032C80.6912 32.768 80.8992 33.624 80.8992 34.6V43H77.7552V35.344C77.7552 34.768 77.6432 34.272 77.4192 33.856C77.1952 33.44 76.8832 33.12 76.4832 32.896C76.0992 32.656 75.6432 32.536 75.1152 32.536C74.6032 32.536 74.1472 32.656 73.7472 32.896C73.3472 33.12 73.0352 33.44 72.8112 33.856C72.5872 34.272 72.4752 34.768 72.4752 35.344V43H69.3312ZM83.5578 43V29.944H86.7018V43H83.5578ZM83.5578 28.48V25.12H86.7018V28.48H83.5578ZM91.1166 43V32.752H88.8126V29.944H91.1166V29.512C91.1166 28.52 91.3166 27.68 91.7166 26.992C92.1326 26.288 92.7086 25.752 93.4446 25.384C94.1806 25.016 95.0526 24.832 96.0606 24.832C96.2526 24.832 96.4606 24.848 96.6846 24.88C96.9246 24.896 97.1246 24.92 97.2846 24.952V27.664C97.1246 27.632 96.9726 27.616 96.8286 27.616C96.7006 27.6 96.5806 27.592 96.4686 27.592C95.7646 27.592 95.2206 27.752 94.8366 28.072C94.4526 28.376 94.2606 28.856 94.2606 29.512V29.944H97.1646V32.752H94.2606V43H91.1166ZM100.939 48.28C100.587 48.28 100.243 48.248 99.9066 48.184C99.5706 48.136 99.2666 48.04 98.9946 47.896V45.28C99.2026 45.328 99.4506 45.376 99.7386 45.424C100.043 45.472 100.323 45.496 100.579 45.496C101.299 45.496 101.819 45.328 102.139 44.992C102.475 44.672 102.771 44.24 103.027 43.696L103.891 41.68L103.843 44.32L98.1546 29.944H101.539L105.523 40.552H104.323L108.283 29.944H111.691L106.003 44.32C105.667 45.152 105.259 45.864 104.779 46.456C104.299 47.048 103.739 47.496 103.099 47.8C102.475 48.12 101.755 48.28 100.939 48.28Z" fill="#0077B6"/>
</svg>
